<svg xmlns="http://www.w3.org/2000/svg" width="47.998" height="48.004" viewBox="0 0 47.998 48.004">
  <g id="Group_3046" data-name="Group 3046" transform="translate(-1324.002 -420.996)">
    <g id="Rectangle_458" data-name="Rectangle 458" transform="translate(1335 432)" fill="#fff" stroke="#08668f" stroke-width="1">
      <rect width="26" height="26" stroke="none"/>
      <rect x="0.5" y="0.5" width="25" height="25" fill="none"/>
    </g>
    <path id="Subtraction_2" data-name="Subtraction 2" d="M-15926-19728h-8v-3h7a5.006,5.006,0,0,0,5-5v-8h3v9A7.008,7.008,0,0,1-15926-19728Zm-26,0h-8a7.007,7.007,0,0,1-7-7v-9h2v8a5,5,0,0,0,5,5h8v3Zm33-34h-3v-6a5.006,5.006,0,0,0-5-5h-7v-3h8a7.01,7.01,0,0,1,7,7v7Zm-46,0h-2v-7a7.009,7.009,0,0,1,7-7h8v3h-8a5,5,0,0,0-5,5v6Z" transform="translate(17291 20196.998)" fill="#08668f"/>
  </g>
</svg>
