<svg xmlns="http://www.w3.org/2000/svg" width="24.645" height="21.907" viewBox="0 0 24.645 21.907">
  <path id="Icon_awesome-shopping-cart" data-name="Icon awesome-shopping-cart" d="M22.6,12.892l2.023-8.9a1.027,1.027,0,0,0-1-1.254H6.812L6.42.821A1.027,1.027,0,0,0,5.414,0H1.027A1.027,1.027,0,0,0,0,1.027v.685A1.027,1.027,0,0,0,1.027,2.738h2.99L7.023,17.433a2.4,2.4,0,1,0,2.869.366h8.97a2.4,2.4,0,1,0,2.721-.445l.236-1.039a1.027,1.027,0,0,0-1-1.254H9.332l-.28-1.369H21.595A1.027,1.027,0,0,0,22.6,12.892Z" fill="#fbfbfb"/>
</svg>
